<svg width="193" height="86" viewBox="0 0 193 86" fill="none" xmlns="http://www.w3.org/2000/svg">
<circle cx="42.8597" cy="42.8597" r="42.8597" fill="#52D37E"/>
<circle cx="91.767" cy="42.8597" r="42.8597" fill="#5DC480"/>
<circle cx="150.14" cy="42.8597" r="42.8597" fill="#52D37E"/>
<path d="M133.544 46.9366C132.169 46.9366 130.987 46.6554 129.998 46.0929C129.015 45.5247 128.257 44.7349 127.723 43.7235C127.194 42.7065 126.93 41.5275 126.93 40.1866C126.93 38.84 127.194 37.661 127.723 36.6497C128.257 35.6326 129.015 34.8429 129.998 34.2804C130.987 33.7122 132.169 33.4281 133.544 33.4281C134.919 33.4281 136.098 33.7122 137.081 34.2804C138.069 34.8429 138.828 35.6326 139.356 36.6497C139.89 37.661 140.157 38.84 140.157 40.1866C140.157 41.5275 139.89 42.7065 139.356 43.7235C138.828 44.7349 138.069 45.5247 137.081 46.0929C136.098 46.6554 134.919 46.9366 133.544 46.9366ZM133.569 43.7917C134.069 43.7917 134.493 43.6383 134.839 43.3315C135.186 43.0247 135.45 42.5985 135.632 42.0531C135.819 41.5076 135.913 40.877 135.913 40.161C135.913 39.4338 135.819 38.7974 135.632 38.252C135.45 37.7065 135.186 37.2804 134.839 36.9735C134.493 36.6667 134.069 36.5133 133.569 36.5133C133.052 36.5133 132.615 36.6667 132.257 36.9735C131.905 37.2804 131.635 37.7065 131.447 38.252C131.265 38.7974 131.174 39.4338 131.174 40.161C131.174 40.877 131.265 41.5076 131.447 42.0531C131.635 42.5985 131.905 43.0247 132.257 43.3315C132.615 43.6383 133.052 43.7917 133.569 43.7917ZM142.292 46.6895V33.5985H146.255V36.002H146.4C146.673 35.2065 147.133 34.5787 147.781 34.1184C148.429 33.6582 149.201 33.4281 150.099 33.4281C151.008 33.4281 151.787 33.661 152.434 34.127C153.082 34.5929 153.494 35.2179 153.67 36.002H153.807C154.051 35.2235 154.528 34.6014 155.238 34.1355C155.949 33.6639 156.787 33.4281 157.753 33.4281C158.991 33.4281 159.997 33.8258 160.77 34.6213C161.542 35.411 161.929 36.4963 161.929 37.877V46.6895H157.761V38.8315C157.761 38.1781 157.593 37.6809 157.258 37.34C156.923 36.9934 156.488 36.8201 155.954 36.8201C155.38 36.8201 154.929 37.0076 154.599 37.3826C154.275 37.752 154.113 38.2491 154.113 38.8741V46.6895H150.108V38.7889C150.108 38.1809 149.943 37.7008 149.613 37.3485C149.284 36.9963 148.849 36.8201 148.309 36.8201C147.946 36.8201 147.625 36.9082 147.346 37.0843C147.068 37.2548 146.849 37.4991 146.69 37.8173C146.537 38.1355 146.46 38.5105 146.46 38.9423V46.6895H142.292ZM170.622 46.9366C169.247 46.9366 168.065 46.6554 167.076 46.0929C166.093 45.5247 165.335 44.7349 164.801 43.7235C164.272 42.7065 164.008 41.5275 164.008 40.1866C164.008 38.84 164.272 37.661 164.801 36.6497C165.335 35.6326 166.093 34.8429 167.076 34.2804C168.065 33.7122 169.247 33.4281 170.622 33.4281C171.997 33.4281 173.176 33.7122 174.159 34.2804C175.147 34.8429 175.906 35.6326 176.434 36.6497C176.968 37.661 177.236 38.84 177.236 40.1866C177.236 41.5275 176.968 42.7065 176.434 43.7235C175.906 44.7349 175.147 45.5247 174.159 46.0929C173.176 46.6554 171.997 46.9366 170.622 46.9366ZM170.647 43.7917C171.147 43.7917 171.571 43.6383 171.917 43.3315C172.264 43.0247 172.528 42.5985 172.71 42.0531C172.897 41.5076 172.991 40.877 172.991 40.161C172.991 39.4338 172.897 38.7974 172.71 38.252C172.528 37.7065 172.264 37.2804 171.917 36.9735C171.571 36.6667 171.147 36.5133 170.647 36.5133C170.13 36.5133 169.693 36.6667 169.335 36.9735C168.983 37.2804 168.713 37.7065 168.525 38.252C168.343 38.7974 168.253 39.4338 168.253 40.161C168.253 40.877 168.343 41.5076 168.525 42.0531C168.713 42.5985 168.983 43.0247 169.335 43.3315C169.693 43.6383 170.13 43.7917 170.647 43.7917Z" fill="white"/>
</svg>
