<svg width="221" height="270" viewBox="0 0 221 270" fill="none" xmlns="http://www.w3.org/2000/svg">
<ellipse cx="143.5" cy="48.5" rx="26.5" ry="48.5" fill="#FEBCBC"/>
<ellipse cx="84.5" cy="48.5" rx="26.5" ry="48.5" fill="#FEBCBC"/>
<ellipse cx="111" cy="128" rx="93" ry="63" fill="#FEBCBC"/>
<path d="M79.3864 136.412C77.0947 136.412 75.125 135.943 73.4773 135.006C71.839 134.059 70.5748 132.742 69.6847 131.057C68.804 129.362 68.3636 127.397 68.3636 125.162C68.3636 122.918 68.804 120.953 69.6847 119.267C70.5748 117.572 71.839 116.256 73.4773 115.318C75.125 114.371 77.0947 113.898 79.3864 113.898C81.678 113.898 83.643 114.371 85.2812 115.318C86.929 116.256 88.1932 117.572 89.0739 119.267C89.964 120.953 90.4091 122.918 90.4091 125.162C90.4091 127.397 89.964 129.362 89.0739 131.057C88.1932 132.742 86.929 134.059 85.2812 135.006C83.643 135.943 81.678 136.412 79.3864 136.412ZM79.429 131.17C80.2623 131.17 80.9678 130.915 81.5455 130.403C82.1231 129.892 82.5634 129.182 82.8665 128.273C83.179 127.364 83.3352 126.312 83.3352 125.119C83.3352 123.907 83.179 122.847 82.8665 121.938C82.5634 121.028 82.1231 120.318 81.5455 119.807C80.9678 119.295 80.2623 119.04 79.429 119.04C78.5672 119.04 77.8381 119.295 77.2415 119.807C76.6544 120.318 76.2045 121.028 75.892 121.938C75.589 122.847 75.4375 123.907 75.4375 125.119C75.4375 126.312 75.589 127.364 75.892 128.273C76.2045 129.182 76.6544 129.892 77.2415 130.403C77.8381 130.915 78.5672 131.17 79.429 131.17ZM93.9673 136V114.182H100.572V118.188H100.814C101.268 116.862 102.036 115.815 103.115 115.048C104.195 114.281 105.482 113.898 106.979 113.898C108.494 113.898 109.791 114.286 110.871 115.062C111.95 115.839 112.637 116.881 112.93 118.188H113.158C113.565 116.89 114.36 115.853 115.544 115.077C116.728 114.291 118.125 113.898 119.734 113.898C121.799 113.898 123.475 114.561 124.763 115.886C126.051 117.203 126.695 119.011 126.695 121.312V136H119.749V122.903C119.749 121.814 119.469 120.986 118.911 120.418C118.352 119.84 117.627 119.551 116.737 119.551C115.781 119.551 115.028 119.864 114.479 120.489C113.939 121.104 113.669 121.933 113.669 122.974V136H106.993V122.832C106.993 121.819 106.718 121.019 106.169 120.432C105.62 119.845 104.895 119.551 103.996 119.551C103.39 119.551 102.855 119.698 102.391 119.991C101.927 120.276 101.562 120.683 101.297 121.213C101.041 121.743 100.913 122.368 100.913 123.088V136H93.9673ZM141.183 136.412C138.892 136.412 136.922 135.943 135.274 135.006C133.636 134.059 132.372 132.742 131.482 131.057C130.601 129.362 130.161 127.397 130.161 125.162C130.161 122.918 130.601 120.953 131.482 119.267C132.372 117.572 133.636 116.256 135.274 115.318C136.922 114.371 138.892 113.898 141.183 113.898C143.475 113.898 145.44 114.371 147.078 115.318C148.726 116.256 149.99 117.572 150.871 119.267C151.761 120.953 152.206 122.918 152.206 125.162C152.206 127.397 151.761 129.362 150.871 131.057C149.99 132.742 148.726 134.059 147.078 135.006C145.44 135.943 143.475 136.412 141.183 136.412ZM141.226 131.17C142.059 131.17 142.765 130.915 143.342 130.403C143.92 129.892 144.36 129.182 144.663 128.273C144.976 127.364 145.132 126.312 145.132 125.119C145.132 123.907 144.976 122.847 144.663 121.938C144.36 121.028 143.92 120.318 143.342 119.807C142.765 119.295 142.059 119.04 141.226 119.04C140.364 119.04 139.635 119.295 139.038 119.807C138.451 120.318 138.001 121.028 137.689 121.938C137.386 122.847 137.234 123.907 137.234 125.119C137.234 126.312 137.386 127.364 137.689 128.273C138.001 129.182 138.451 129.892 139.038 130.403C139.635 130.915 140.364 131.17 141.226 131.17Z" fill="white"/>
<path d="M97.9003 172.814C119.372 184.579 119.372 215.421 97.9003 227.186L82.7755 235.474C62.1166 246.793 36.8792 231.844 36.8792 208.287L36.8792 191.713C36.8792 168.156 62.1165 153.207 82.7755 164.526L97.9003 172.814Z" fill="#FD5353"/>
<path d="M122.905 227.186C101.433 215.421 101.433 184.579 122.905 172.814L138.03 164.526C158.689 153.207 183.926 168.156 183.926 191.713L183.926 208.287C183.926 231.844 158.689 246.793 138.03 235.474L122.905 227.186Z" fill="#FD5353"/>
</svg>
