<svg width="221" height="270" viewBox="0 0 221 270" fill="none" xmlns="http://www.w3.org/2000/svg">
<ellipse cx="141.5" cy="48.5" rx="26.5" ry="48.5" fill="#FEBCBC"/>
<ellipse cx="82.5" cy="48.5" rx="26.5" ry="48.5" fill="#FEBCBC"/>
<ellipse cx="109" cy="128" rx="93" ry="63" fill="#FEBCBC"/>
<path d="M77.3864 136.412C75.0947 136.412 73.125 135.943 71.4773 135.006C69.839 134.059 68.5748 132.742 67.6847 131.057C66.804 129.362 66.3636 127.397 66.3636 125.162C66.3636 122.918 66.804 120.953 67.6847 119.267C68.5748 117.572 69.839 116.256 71.4773 115.318C73.125 114.371 75.0947 113.898 77.3864 113.898C79.678 113.898 81.643 114.371 83.2812 115.318C84.929 116.256 86.1932 117.572 87.0739 119.267C87.964 120.953 88.4091 122.918 88.4091 125.162C88.4091 127.397 87.964 129.362 87.0739 131.057C86.1932 132.742 84.929 134.059 83.2812 135.006C81.643 135.943 79.678 136.412 77.3864 136.412ZM77.429 131.17C78.2623 131.17 78.9678 130.915 79.5455 130.403C80.1231 129.892 80.5634 129.182 80.8665 128.273C81.179 127.364 81.3352 126.312 81.3352 125.119C81.3352 123.907 81.179 122.847 80.8665 121.938C80.5634 121.028 80.1231 120.318 79.5455 119.807C78.9678 119.295 78.2623 119.04 77.429 119.04C76.5672 119.04 75.8381 119.295 75.2415 119.807C74.6544 120.318 74.2045 121.028 73.892 121.938C73.589 122.847 73.4375 123.907 73.4375 125.119C73.4375 126.312 73.589 127.364 73.892 128.273C74.2045 129.182 74.6544 129.892 75.2415 130.403C75.8381 130.915 76.5672 131.17 77.429 131.17ZM91.9673 136V114.182H98.5724V118.188H98.8139C99.2685 116.862 100.036 115.815 101.115 115.048C102.195 114.281 103.482 113.898 104.979 113.898C106.494 113.898 107.791 114.286 108.871 115.062C109.95 115.839 110.637 116.881 110.93 118.188H111.158C111.565 116.89 112.36 115.853 113.544 115.077C114.728 114.291 116.125 113.898 117.734 113.898C119.799 113.898 121.475 114.561 122.763 115.886C124.051 117.203 124.695 119.011 124.695 121.312V136H117.749V122.903C117.749 121.814 117.469 120.986 116.911 120.418C116.352 119.84 115.627 119.551 114.737 119.551C113.781 119.551 113.028 119.864 112.479 120.489C111.939 121.104 111.669 121.933 111.669 122.974V136H104.993V122.832C104.993 121.819 104.718 121.019 104.169 120.432C103.62 119.845 102.895 119.551 101.996 119.551C101.39 119.551 100.855 119.698 100.391 119.991C99.9266 120.276 99.562 120.683 99.2969 121.213C99.0412 121.743 98.9134 122.368 98.9134 123.088V136H91.9673ZM139.183 136.412C136.892 136.412 134.922 135.943 133.274 135.006C131.636 134.059 130.372 132.742 129.482 131.057C128.601 129.362 128.161 127.397 128.161 125.162C128.161 122.918 128.601 120.953 129.482 119.267C130.372 117.572 131.636 116.256 133.274 115.318C134.922 114.371 136.892 113.898 139.183 113.898C141.475 113.898 143.44 114.371 145.078 115.318C146.726 116.256 147.99 117.572 148.871 119.267C149.761 120.953 150.206 122.918 150.206 125.162C150.206 127.397 149.761 129.362 148.871 131.057C147.99 132.742 146.726 134.059 145.078 135.006C143.44 135.943 141.475 136.412 139.183 136.412ZM139.226 131.17C140.059 131.17 140.765 130.915 141.342 130.403C141.92 129.892 142.36 129.182 142.663 128.273C142.976 127.364 143.132 126.312 143.132 125.119C143.132 123.907 142.976 122.847 142.663 121.938C142.36 121.028 141.92 120.318 141.342 119.807C140.765 119.295 140.059 119.04 139.226 119.04C138.364 119.04 137.635 119.295 137.038 119.807C136.451 120.318 136.001 121.028 135.689 121.938C135.386 122.847 135.234 123.907 135.234 125.119C135.234 126.312 135.386 127.364 135.689 128.273C136.001 129.182 136.451 129.892 137.038 130.403C137.635 130.915 138.364 131.17 139.226 131.17Z" fill="black"/>
<path d="M97.9003 172.814C119.372 184.579 119.372 215.421 97.9003 227.186L82.7755 235.474C62.1165 246.793 36.8792 231.844 36.8792 208.287L36.8792 191.713C36.8792 168.156 62.1165 153.207 82.7755 164.526L97.9003 172.814Z" fill="#FD5353"/>
<path d="M122.905 227.186C101.433 215.421 101.433 184.579 122.905 172.814L138.03 164.526C158.689 153.207 183.926 168.156 183.926 191.713L183.926 208.287C183.926 231.844 158.689 246.793 138.03 235.474L122.905 227.186Z" fill="#FD5353"/>
</svg>
