<svg width="269" height="73" viewBox="0 0 269 73" fill="none" xmlns="http://www.w3.org/2000/svg">
<path d="M35.6364 72.3182C28.303 72.3182 22 70.8182 16.7273 67.8182C11.4848 64.7879 7.43939 60.5758 4.59091 55.1818C1.77273 49.7576 0.363636 43.4697 0.363636 36.3182C0.363636 29.1364 1.77273 22.8485 4.59091 17.4545C7.43939 12.0303 11.4848 7.81818 16.7273 4.81818C22 1.78788 28.303 0.272728 35.6364 0.272728C42.9697 0.272728 49.2576 1.78788 54.5 4.81818C59.7727 7.81818 63.8182 12.0303 66.6364 17.4545C69.4849 22.8485 70.9091 29.1364 70.9091 36.3182C70.9091 43.4697 69.4849 49.7576 66.6364 55.1818C63.8182 60.5758 59.7727 64.7879 54.5 67.8182C49.2576 70.8182 42.9697 72.3182 35.6364 72.3182ZM35.7727 55.5455C38.4394 55.5455 40.697 54.7273 42.5455 53.0909C44.3939 51.4545 45.803 49.1818 46.7727 46.2727C47.7727 43.3636 48.2727 40 48.2727 36.1818C48.2727 32.303 47.7727 28.9091 46.7727 26C45.803 23.0909 44.3939 20.8182 42.5455 19.1818C40.697 17.5455 38.4394 16.7273 35.7727 16.7273C33.0152 16.7273 30.6818 17.5455 28.7727 19.1818C26.8939 20.8182 25.4545 23.0909 24.4545 26C23.4848 28.9091 23 32.303 23 36.1818C23 40 23.4848 43.3636 24.4545 46.2727C25.4545 49.1818 26.8939 51.4545 28.7727 53.0909C30.6818 54.7273 33.0152 55.5455 35.7727 55.5455ZM82.2955 71V1.18182H103.432V14H104.205C105.659 9.75757 108.114 6.40909 111.568 3.95454C115.023 1.5 119.144 0.272728 123.932 0.272728C128.78 0.272728 132.932 1.51515 136.386 4C139.841 6.48485 142.038 9.81818 142.977 14H143.705C145.008 9.84848 147.553 6.5303 151.341 4.04546C155.129 1.5303 159.598 0.272728 164.75 0.272728C171.356 0.272728 176.72 2.39394 180.841 6.63636C184.962 10.8485 187.023 16.6364 187.023 24V71H164.795V29.0909C164.795 25.6061 163.902 22.9545 162.114 21.1364C160.326 19.2879 158.008 18.3636 155.159 18.3636C152.098 18.3636 149.689 19.3636 147.932 21.3636C146.205 23.3333 145.341 25.9848 145.341 29.3182V71H123.977V28.8636C123.977 25.6212 123.098 23.0606 121.341 21.1818C119.583 19.303 117.265 18.3636 114.386 18.3636C112.447 18.3636 110.735 18.8333 109.25 19.7727C107.765 20.6818 106.598 21.9848 105.75 23.6818C104.932 25.3788 104.523 27.3788 104.523 29.6818V71H82.2955ZM233.386 72.3182C226.053 72.3182 219.75 70.8182 214.477 67.8182C209.235 64.7879 205.189 60.5758 202.341 55.1818C199.523 49.7576 198.114 43.4697 198.114 36.3182C198.114 29.1364 199.523 22.8485 202.341 17.4545C205.189 12.0303 209.235 7.81818 214.477 4.81818C219.75 1.78788 226.053 0.272728 233.386 0.272728C240.72 0.272728 247.008 1.78788 252.25 4.81818C257.523 7.81818 261.568 12.0303 264.386 17.4545C267.235 22.8485 268.659 29.1364 268.659 36.3182C268.659 43.4697 267.235 49.7576 264.386 55.1818C261.568 60.5758 257.523 64.7879 252.25 67.8182C247.008 70.8182 240.72 72.3182 233.386 72.3182ZM233.523 55.5455C236.189 55.5455 238.447 54.7273 240.295 53.0909C242.144 51.4545 243.553 49.1818 244.523 46.2727C245.523 43.3636 246.023 40 246.023 36.1818C246.023 32.303 245.523 28.9091 244.523 26C243.553 23.0909 242.144 20.8182 240.295 19.1818C238.447 17.5455 236.189 16.7273 233.523 16.7273C230.765 16.7273 228.432 17.5455 226.523 19.1818C224.644 20.8182 223.205 23.0909 222.205 26C221.235 28.9091 220.75 32.303 220.75 36.1818C220.75 40 221.235 43.3636 222.205 46.2727C223.205 49.1818 224.644 51.4545 226.523 53.0909C228.432 54.7273 230.765 55.5455 233.523 55.5455Z" fill="black"/>
</svg>
